<?xml version="1.0" standalone="no"?>
<!DOCTYPE svg PUBLIC "-//W3C//DTD SVG 20010904//EN"
 "http://www.w3.org/TR/2001/REC-SVG-20010904/DTD/svg10.dtd">
<svg version="1.0" xmlns="http://www.w3.org/2000/svg"
 width="350.000000pt" height="138.000000pt" viewBox="0 0 350.000000 138.000000"
 preserveAspectRatio="xMidYMid meet">

<g transform="translate(0.000000,138.000000) scale(0.100000,-0.100000)"
fill="#FFFFFF" stroke="none">
<path d="M131 1286 c-51 -28 -50 -23 -51 -593 0 -392 3 -539 12 -558 25 -55
27 -55 538 -55 511 0 513 0 538 55 9 19 12 166 12 556 0 575 0 572 -55 597
-40 18 -961 16 -994 -2z m680 -215 c74 -28 133 -80 154 -136 30 -78 -4 -135
-81 -135 -53 0 -90 29 -138 108 -45 74 -75 101 -118 108 -46 8 -90 -15 -120
-63 -20 -34 -23 -50 -22 -143 0 -84 5 -116 22 -161 44 -111 128 -179 221 -179
71 0 99 14 159 78 44 47 56 55 70 46 42 -27 14 -137 -53 -212 -61 -67 -129
-95 -240 -95 -70 -1 -89 3 -147 30 -213 100 -301 373 -189 590 45 88 123 152
220 180 64 18 193 10 262 -16z"/>
<path d="M1546 925 c-174 -66 -221 -283 -89 -412 45 -43 116 -73 173 -73 35 0
120 27 144 45 19 14 19 15 2 34 -18 20 -18 20 -54 0 -91 -48 -216 -8 -261 83
-57 118 9 250 139 279 32 7 53 5 98 -10 55 -19 58 -19 75 -2 18 18 17 19 -29
42 -59 28 -144 34 -198 14z"/>
<path d="M1860 695 l0 -245 25 0 25 0 0 245 0 245 -25 0 -25 0 0 -245z"/>
<path d="M2420 695 l0 -245 30 0 c30 0 30 1 30 53 0 44 4 58 25 77 l26 24 78
-78 c66 -66 82 -77 107 -74 29 3 28 4 -58 95 -49 50 -88 95 -88 100 0 5 32 40
70 78 39 38 70 73 70 77 0 5 -13 8 -29 8 -24 0 -45 -17 -115 -92 l-86 -92 0
157 0 157 -30 0 -30 0 0 -245z"/>
<path d="M3250 850 c0 -36 -2 -40 -25 -40 -20 0 -25 -5 -25 -25 0 -20 5 -25
25 -25 l25 0 0 -134 c0 -74 3 -142 6 -151 9 -23 50 -37 90 -29 28 5 34 11 34
31 0 22 -3 24 -26 19 -48 -12 -54 5 -54 140 l0 124 40 0 c36 0 40 3 40 25 0
23 -4 25 -40 25 l-40 0 0 40 c0 36 -2 40 -25 40 -22 0 -25 -4 -25 -40z"/>
<path d="M2065 787 c-61 -34 -87 -87 -83 -169 4 -75 21 -107 78 -145 65 -45
151 -39 204 13 l26 27 0 -32 c0 -26 4 -31 25 -31 l25 0 0 180 0 180 -25 0
c-21 0 -25 -5 -25 -32 l0 -31 -22 20 c-37 33 -64 43 -115 43 -31 0 -62 -8 -88
-23z m183 -61 c35 -32 37 -38 37 -94 0 -72 -23 -110 -78 -131 -104 -39 -201
59 -168 169 17 57 61 90 122 90 42 0 55 -5 87 -34z"/>
<path d="M2895 796 c-66 -29 -111 -114 -102 -192 13 -120 144 -195 261 -150
56 21 73 40 56 60 -10 13 -17 12 -51 -6 -62 -32 -133 -22 -176 26 -18 19 -33
45 -33 56 0 19 6 20 150 20 l150 0 0 38 c0 51 -37 112 -85 139 -46 26 -122 30
-170 9z m132 -45 c38 -18 73 -61 73 -91 0 -6 -44 -10 -125 -10 -81 0 -125 4
-125 10 0 37 50 91 95 103 33 8 39 7 82 -12z"/>
</g>
</svg>
