<?xml version="1.0" standalone="no"?>
<!DOCTYPE svg PUBLIC "-//W3C//DTD SVG 20010904//EN"
 "http://www.w3.org/TR/2001/REC-SVG-20010904/DTD/svg10.dtd">
<svg version="1.0" xmlns="http://www.w3.org/2000/svg"
 width="138.000000pt" height="138.000000pt" viewBox="0 0 125.000000 138.000000"
 preserveAspectRatio="xMidYMid meet">

<g transform="translate(0.000000,138.000000) scale(0.100000,-0.100000)"
fill="#FFFFFF" stroke="none">
<path d="M131 1286 c-51 -28 -50 -23 -51 -593 0 -392 3 -539 12 -558 25 -55
27 -55 538 -55 511 0 513 0 538 55 9 19 12 166 12 556 0 575 0 572 -55 597
-40 18 -961 16 -994 -2z m680 -215 c74 -28 133 -80 154 -136 30 -78 -4 -135
-81 -135 -53 0 -90 29 -138 108 -45 74 -75 101 -118 108 -46 8 -90 -15 -120
-63 -20 -34 -23 -50 -22 -143 0 -84 5 -116 22 -161 44 -111 128 -179 221 -179
71 0 99 14 159 78 44 47 56 55 70 46 42 -27 14 -137 -53 -212 -61 -67 -129
-95 -240 -95 -70 -1 -89 3 -147 30 -213 100 -301 373 -189 590 45 88 123 152
220 180 64 18 193 10 262 -16z"/>
</g>
</svg>
